<svg width="268" height="288" viewBox="0 0 268 288" fill="none" xmlns="http://www.w3.org/2000/svg">
<path fill-rule="evenodd" clip-rule="evenodd" d="M46.5685 62.1591C60.3301 58.8725 77.0056 59.003 95.0455 62.2577L93.6251 70.1306C76.3098 67.0066 60.8051 66.9841 48.4268 69.9403C36.0618 72.8933 27.1219 78.7261 22.2369 87.1072C15.0047 99.5157 17.1428 116.879 28.4113 136.348L21.4874 140.355C9.64452 119.894 5.94797 99.1675 15.3253 83.0788C21.6339 72.2549 32.7935 65.4489 46.5685 62.1591ZM98.9898 211.88C75.8191 198.629 56.1001 182.912 41.1668 166.656L47.0583 161.244C61.3805 176.835 80.4332 192.051 102.961 204.935C129.822 220.297 157.098 229.755 180.832 233.163C202.413 236.262 220.547 234.295 232.866 227.79C231.37 225.125 230.516 222.054 230.516 218.778C230.516 208.504 238.914 200.24 249.193 200.24C259.472 200.24 267.87 208.504 267.87 218.778C267.87 229.052 259.472 237.317 249.193 237.317C245.165 237.317 241.426 236.048 238.368 233.886C223.803 242.349 202.935 244.419 179.695 241.082C154.827 237.511 126.597 227.669 98.9898 211.88ZM249.193 208.24C243.261 208.24 238.516 212.993 238.516 218.778C238.516 224.563 243.261 229.317 249.193 229.317C255.126 229.317 259.87 224.563 259.87 218.778C259.87 212.993 255.126 208.24 249.193 208.24Z" fill="#74B1BE"/>
<path fill-rule="evenodd" clip-rule="evenodd" d="M201.539 59.9596C224.795 60.2592 244.239 67.4652 253.453 83.2738C259.752 94.0817 260.138 107.047 256.147 120.502C252.161 133.937 243.744 148.155 231.929 161.981L225.847 156.784C237.18 143.523 244.902 130.276 248.477 118.227C252.046 106.197 251.412 95.6595 246.541 87.3023C239.418 75.0804 223.552 68.2438 201.436 67.9589L201.539 59.9596ZM99.1034 90.6694C122.513 77.2816 146.358 68.1754 168.214 63.5368L169.875 71.3625C148.906 75.8128 125.835 84.5972 103.075 97.6139C75.4193 113.43 53.0227 132.749 38.1769 151.941C24.6029 169.489 17.7103 186.428 18.1677 200.281C18.5856 200.254 19.0071 200.24 19.4319 200.24C29.7111 200.24 38.1089 208.504 38.1089 218.778C38.1089 229.052 29.7111 237.317 19.4319 237.317C9.15272 237.317 0.754921 229.052 0.754921 218.778C0.754921 211.82 4.6068 205.783 10.2863 202.612C8.942 185.562 17.2232 165.954 31.8491 147.046C47.435 126.898 70.6838 106.923 99.1034 90.6694ZM19.4319 208.24C13.4993 208.24 8.75492 212.993 8.75492 218.778C8.75492 224.563 13.4993 229.317 19.4319 229.317C25.3645 229.317 30.1089 224.563 30.1089 218.778C30.1089 212.993 25.3644 208.24 19.4319 208.24Z" fill="#74B1BE"/>
<path fill-rule="evenodd" clip-rule="evenodd" d="M115.769 19.2039C115.769 8.92972 124.167 0.665405 134.446 0.665405C144.725 0.665405 153.123 8.92972 153.123 19.2039C153.123 19.4339 153.119 19.6628 153.11 19.8907C168.297 27.7094 180.976 44.6712 189.964 66.5996C199.504 89.8749 205.16 119.374 205.16 151.372C205.16 177.46 201.4 201.871 194.853 222.598L187.224 220.188C193.504 200.31 197.16 176.719 197.16 151.372C197.16 120.257 191.651 91.8103 182.561 69.6336C174.235 49.3197 163.127 34.7778 150.98 27.8361C147.847 33.7368 141.602 37.7424 134.446 37.7424C124.167 37.7424 115.769 29.4781 115.769 19.2039ZM134.446 8.66541C128.513 8.66541 123.769 13.4193 123.769 19.2039C123.769 24.9885 128.513 29.7424 134.446 29.7424C140.379 29.7424 145.123 24.9885 145.123 19.2039C145.123 13.4193 140.379 8.66541 134.446 8.66541ZM100.574 271.219C90.8168 261.062 82.5898 246.7 76.4105 229.608L83.934 226.888C89.858 243.274 97.5823 256.557 106.343 265.677C115.091 274.783 124.656 279.54 134.446 279.54C148.616 279.54 162.413 269.493 173.66 250.96L180.499 255.11C168.626 274.675 152.7 287.54 134.446 287.54C121.865 287.54 110.345 281.39 100.574 271.219Z" fill="#74B1BE"/>
<path fill-rule="evenodd" clip-rule="evenodd" d="M137.28 164.369C130.033 165.92 122.894 161.358 121.325 154.18C119.762 147.001 124.364 139.929 131.611 138.375C138.858 136.824 145.997 141.386 147.566 148.565C149.132 155.743 144.527 162.815 137.28 164.369Z" fill="#74B1BE"/>
</svg>